HIERARCHY
ROOT joint_Root
{
  OFFSET 0 0 0
  CHANNELS 6 Xposition Yposition Zposition Zrotation Xrotation Yrotation
  JOINT Hips
  {
    OFFSET 0.847027 93.984 -452.225
    CHANNELS 6 Xposition Yposition Zposition Zrotation Xrotation Yrotation
    JOINT Spine
    {
      OFFSET 15.7357 0 0
      CHANNELS 6 Xposition Yposition Zposition Zrotation Xrotation Yrotation
      JOINT Chest
      {
        OFFSET 8.98455 -0.406207 0
        CHANNELS 6 Xposition Yposition Zposition Zrotation Xrotation Yrotation
        JOINT Neck
        {
          OFFSET 16.3773 0 0
          CHANNELS 6 Xposition Yposition Zposition Zrotation Xrotation Yrotation
          JOINT Head
          {
            OFFSET 6.45672 0 0
            CHANNELS 6 Xposition Yposition Zposition Zrotation Xrotation Yrotation
            End Site
            {
              OFFSET 0 0 0
            }
          }
        }
        JOINT Shoulder_L
        {
          OFFSET 12.9942 -0.242716 4.98039
          CHANNELS 6 Xposition Yposition Zposition Zrotation Xrotation Yrotation
          JOINT UpperArm_L
          {
            OFFSET 5.34809 0 0
            CHANNELS 6 Xposition Yposition Zposition Zrotation Xrotation Yrotation
            JOINT LowerArm_L
            {
              OFFSET 24.3286 1.87007e-05 0
              CHANNELS 6 Xposition Yposition Zposition Zrotation Xrotation Yrotation
              JOINT Hand_L
              {
                OFFSET 22.2916 0 0
                CHANNELS 6 Xposition Yposition Zposition Zrotation Xrotation Yrotation
                End Site
                {
                  OFFSET 0 0 0
                }
              }
            }
          }
        }
        JOINT Shoulder_R
        {
          OFFSET 12.9945 -0.242716 -4.98039
          CHANNELS 6 Xposition Yposition Zposition Zrotation Xrotation Yrotation
          JOINT UpperArm_R
          {
            OFFSET -5.34813 0 0
            CHANNELS 6 Xposition Yposition Zposition Zrotation Xrotation Yrotation
            JOINT LowerArm_R
            {
              OFFSET -24.3289 0.000322201 0
              CHANNELS 6 Xposition Yposition Zposition Zrotation Xrotation Yrotation
              JOINT Hand_R
              {
                OFFSET -22.2915 -0.000108084 0
                CHANNELS 6 Xposition Yposition Zposition Zrotation Xrotation Yrotation
                End Site
                {
                  OFFSET 0 0 0
                }
              }
            }
          }
        }
      }
    }
    JOINT UpperLeg_L
    {
      OFFSET -2.19248 -6.46944 0
      CHANNELS 6 Xposition Yposition Zposition Zrotation Xrotation Yrotation
      JOINT LowerLeg_L
      {
        OFFSET 39.0811 0 -1.23785e-05
        CHANNELS 6 Xposition Yposition Zposition Zrotation Xrotation Yrotation
        JOINT Foot_L
        {
          OFFSET 40.9854 0 -1.26872e-05
          CHANNELS 6 Xposition Yposition Zposition Zrotation Xrotation Yrotation
          JOINT Toes_L
          {
            OFFSET 11.7543 0 0
            CHANNELS 6 Xposition Yposition Zposition Zrotation Xrotation Yrotation
            End Site
            {
              OFFSET 0 0 0
            }
          }
        }
      }
    }
    JOINT UpperLeg_R
    {
      OFFSET -2.19251 6.46944 0
      CHANNELS 6 Xposition Yposition Zposition Zrotation Xrotation Yrotation
      JOINT LowerLeg_R
      {
        OFFSET -39.0811 -0.00228153 -0.0401928
        CHANNELS 6 Xposition Yposition Zposition Zrotation Xrotation Yrotation
        JOINT Foot_R
        {
          OFFSET -40.9854 0 0
          CHANNELS 6 Xposition Yposition Zposition Zrotation Xrotation Yrotation
          JOINT Toes_R
          {
            OFFSET -11.7543 0 0
            CHANNELS 6 Xposition Yposition Zposition Zrotation Xrotation Yrotation
            End Site
            {
              OFFSET 0 0 0
            }
          }
        }
      }
    }
  }
}
MOTION
Frames:	5
Frame Time:	0.0333333
0 0 0 0 0 -0 -133.41 82.6502 -0.339982 88.5054 -6.93624 8.18354 15.7357 5.1072e-06 -5.51765e-07 103.536 81.3687 -104.163 8.98455 -0.406207 -4.3199e-07 9.05589 4.01213 -1.56972 16.3773 -1.3905e-06 -6.99897e-07 -2.49594 -1.97827 2.39938 6.45672 -1.25837e-06 -1.02172e-07 -14.0554 -6.25599 2.9203 12.9942 -0.242716 4.98039 -91.8324 5.78842 -87.3844 5.34809 -7.22636e-06 -6.2814e-07 -69.0187 -3.46258 21.8956 24.3286 1.87007e-05 4.90208e-06 -17.2953 -11.4847 -57.3848 22.2916 -9.88446e-07 4.63217e-06 21.4441 5.68245 -20.0323 12.9945 -0.242716 -4.98039 88.8479 13.6966 -100.146 -5.34813 -1.25947e-06 -3.79883e-06 -50.9512 1.69497 0.471227 -24.3289 0.000322201 -8.65921e-06 -17.9754 -12.3974 -56.4542 -22.2915 -0.000108084 -4.47941e-06 19.7626 5.63224 -13.5102 -2.19248 -6.46944 -1.22534e-07 177.524 -42.652 -33.4416 39.0811 -6.73843e-06 -1.23785e-05 0.297668 -0.148583 59.3336 40.9854 -6.48686e-06 -1.26872e-05 9.36056 -3.47641 -72.1716 11.7543 -2.30145e-07 3.05095e-06 0.0241882 -0.0377415 -17.2511 -2.19251 6.46944 -1.45247e-06 161.36 19.4413 148.546 -39.0811 -0.00228153 -0.0401928 2.64031 1.22416 115.154 -40.9854 7.72618e-06 5.99936e-06 -3.34323 -8.68544 -13.283 -11.7543 -5.6619e-06 -5.58687e-06 0.202429 -0.234231 -18.8505 
0 0 0 0 0 -0 -134.208 80.089 12.0599 86.6644 -0.56919 8.71392 15.7357 5.1072e-06 -5.51765e-07 90.2117 80.4615 -89.6963 8.98455 -0.406207 -4.3199e-07 11.3107 0.0858525 1.02179 16.3773 -1.3905e-06 -6.99897e-07 -3.66434 -2.9945 1.1094 6.45672 -1.25837e-06 -1.02172e-07 -15.6303 -5.86991 4.0403 12.9942 -0.242716 4.98039 -92.534 9.99714 -90.687 5.34809 -7.22636e-06 -6.2814e-07 -59.4774 -5.9813 -3.87086 24.3286 1.87007e-05 4.90208e-06 -22.6362 -10.8546 -65.6872 22.2916 -9.88446e-07 4.63217e-06 25.8834 5.67851 -23.4974 12.9945 -0.242716 -4.98039 88.1916 15.9133 -98.4302 -5.34813 -1.25947e-06 -3.79883e-06 -50.785 -0.134987 16.0982 -24.3289 0.000322201 -8.65921e-06 -11.0437 -12.2393 -42.6358 -22.2915 -0.000108084 -4.47941e-06 16.9527 5.62859 -13.1678 -2.19248 -6.46944 -1.22534e-07 -174.682 -29.5047 -27.5338 39.0811 -6.73843e-06 -1.23785e-05 0.273979 -0.0582746 70.9782 40.9854 -6.48686e-06 -1.26872e-05 1.29985 -7.38602 -82.8169 11.7543 -2.30145e-07 3.05095e-06 0.0364012 -0.0571735 -17.5959 -2.19251 6.46944 -1.45247e-06 168.034 30.3431 127.931 -39.0811 -0.00228153 -0.0401928 2.2804 1.59344 125.378 -40.9854 7.72618e-06 5.99936e-06 -0.806272 -8.37358 -16.3984 -11.7543 -5.6619e-06 -5.58687e-06 0.156014 -0.17886 -18.3191 
0 0 0 0 0 -0 -134.702 79.3466 25.994 86.3498 4.84654 8.59291 15.7357 5.1072e-06 -5.51765e-07 81.1729 79.9834 -80.2559 8.98455 -0.406207 -4.3199e-07 12.067 -3.01281 2.15242 16.3773 -1.3905e-06 -6.99897e-07 -4.37887 -4.95795 1.10466 6.45672 -1.25837e-06 -1.02172e-07 -13.9191 -3.81431 4.26615 12.9942 -0.242716 4.98039 -91.6673 9.3744 -94.8788 5.34809 -7.22636e-06 -6.2814e-07 -54.919 -14.1681 -29.2809 24.3286 1.87007e-05 4.90208e-06 -28.8662 -9.99663 -72.5184 22.2916 -9.88446e-07 4.63217e-06 27.564 5.66979 -24.8947 12.9945 -0.242716 -4.98039 87.0156 14.4827 -93.22 -5.34813 -1.25947e-06 -3.79883e-06 -55.4549 0.979157 29.9918 -24.3289 0.000322201 -8.65921e-06 -10.2647 -13.5346 -37.7303 -22.2915 -0.000108084 -4.47941e-06 13.1915 5.61517 -12.3043 -2.19248 -6.46944 -1.22534e-07 -168.45 -24.4929 -15.4861 39.0811 -6.73843e-06 -1.23785e-05 0.175632 -0.022668 70.772 40.9854 -6.48686e-06 -1.26872e-05 -3.43569 -3.01434 -91.09 11.7543 -2.30144e-07 3.05095e-06 0.0830886 -0.133981 -18.9463 -2.19251 6.46944 -1.45247e-06 175.696 35.4317 111.296 -39.0811 -0.00228153 -0.0401928 1.25066 0.78587 123.068 -40.9854 7.72618e-06 5.99936e-06 -1.90876 -7.46437 -26.6919 -11.7543 -5.6619e-06 -5.58687e-06 0.127972 -0.14589 -18.0011 
0 0 0 0 0 -0 -135.046 80.2231 40.6833 84.9057 8.03629 7.28157 15.7357 5.1072e-06 -5.51765e-07 66.1299 80.2208 -64.3411 8.98455 -0.406207 -4.3199e-07 10.3158 -7.82311 4.28692 16.3773 -1.3905e-06 -6.99897e-07 -3.16027 -4.65007 0.484532 6.45672 -1.25837e-06 -1.02172e-07 -12.9149 -0.814423 4.84192 12.9942 -0.242716 4.98039 -90.2665 1.57875 -95.3627 5.34809 -7.22636e-06 -6.2814e-07 -63.9125 -23.9685 -45.9081 24.3286 1.87007e-05 4.90208e-06 -29.9161 -4.50225 -82.2268 22.2916 -9.88446e-07 4.63217e-06 28.0865 5.67197 -24.5522 12.9945 -0.242716 -4.98039 86.5668 11.7713 -88.6048 -5.34813 -1.25947e-06 -3.79883e-06 -59.2364 5.74156 43.7031 -24.3289 0.000322201 -8.65921e-06 -13.3574 -14.305 -43.8394 -22.2915 -0.000108084 -4.47941e-06 12.1441 5.63369 -13.6173 -2.19248 -6.46944 -1.22534e-07 -160.351 -20.7588 -2.04402 39.0811 -6.73843e-06 -1.23785e-05 0.13368 -0.0289431 62.9828 40.9854 -6.48686e-06 -1.26872e-05 -8.53806 4.15679 -88.6848 11.7543 -2.30145e-07 3.05095e-06 0.268312 -0.488074 -24.953 -2.19251 6.46944 -1.45247e-06 -177.105 36.8933 101.156 -39.0811 -0.00228153 -0.0401928 0.453157 0.152384 111.465 -40.9854 7.72618e-06 5.99936e-06 -5.05682 -3.80977 -35.5488 -11.7543 -5.6619e-06 -5.58687e-06 0.0815318 -0.092064 -17.4783 
0 0 0 0 0 -0 -134.712 81.9371 55.7159 85.1031 9.21534 6.28717 15.7357 5.1072e-06 -5.51765e-07 52.6602 80.0226 -49.8718 8.98455 -0.406207 -4.3199e-07 8.54145 -12.0293 6.48939 16.3773 -1.3905e-06 -6.99897e-07 -2.09062 -3.36027 -0.680655 6.45672 -1.25837e-06 -1.02172e-07 -12.9327 2.05255 4.79146 12.9942 -0.242716 4.98039 -89.4732 -2.4922 -93.0689 5.34809 -7.22636e-06 -6.2814e-07 -66.2313 -28.3865 -55.4956 24.3286 1.87007e-05 4.90208e-06 -34.6486 0.792422 -91.134 22.2916 -9.88446e-07 4.63217e-06 31.1091 5.66957 -25.144 12.9945 -0.242716 -4.98039 88.1824 5.77134 -87.5009 -5.34813 -1.25947e-06 -3.79883e-06 -63.2254 8.00099 53.9199 -24.3289 0.000322201 -8.65921e-06 -16.1507 -13.9087 -50.3129 -22.2915 -0.000108084 -4.47941e-06 12.4259 5.62659 -13.0811 -2.19248 -6.46944 -1.22534e-07 -157.73 -13.9832 7.2031 39.0811 -6.73843e-06 -1.23785e-05 0.282469 -0.146631 55.3477 40.9854 -6.48686e-06 -1.26872e-05 -12.9154 3.71806 -68.4268 11.7543 -2.30145e-07 3.05095e-06 0.605183 -1.80451 -45.4747 -2.19251 6.46944 -1.45247e-06 -172.993 39.3702 98.6508 -39.0811 -0.00228153 -0.0401928 -0.07302 -0.0264543 94.3972 -40.9854 7.72618e-06 5.99936e-06 -9.30137 -3.41222 -39.5695 -11.7543 -5.6619e-06 -5.58687e-06 0.0519561 -0.0583419 -17.1484 
